# xmcd
#
# Track frame offsets: 
#        150
#        29189
#        61906
#        88119
#        101644
#        131944
#        148261
#
# Disc length: 2208 seconds
#
# Revision: 0
# Processed by: cddbd v1.5.2PL0 Copyright (c) Steve Scherf et al.
# Submitted via: ExactAudioCopy v1.3
#
DISCID=6d089e07
DTITLE=Big Mama Thornton - Disc One Jail
DYEAR=2000
DGENRE=Blues
TTITLE0=Little Red Rooster
TTITLE1=Ball And Chain
TTITLE2=Jail
TTITLE3=Hound Dog
TTITLE4=Rock Me Baby
TTITLE5=Sheriff O.E. and Me
TTITLE6=Oh Happy Day
EXTD=
EXTT0=
EXTT1=
EXTT2=
EXTT3=
EXTT4=
EXTT5=
EXTT6=
PLAYORDER=
